<svg xmlns="http://www.w3.org/2000/svg" viewBox="0 0 24 24" aria-hidden="true">
  <circle cx="12" cy="11.8" r="8.3" fill="none" stroke="currentColor" stroke-width="2" stroke-linecap="round" stroke-linejoin="round"/>
  <path d="M7.4 18.8 5.8 20.2 6.6 18" fill="none" stroke="currentColor" stroke-width="2" stroke-linecap="round" stroke-linejoin="round"/>
  <g transform="translate(12 12) scale(0.9) translate(-12 -12)">
    <path fill="currentColor" d="M16.67 13.37c-.27-.13-1.58-.78-1.83-.87-.24-.09-.42-.13-.6.13-.18.27-.69.87-.85 1.05-.16.18-.31.2-.58.07-.27-.13-1.13-.42-2.15-1.34-.79-.7-1.32-1.57-1.48-1.84-.15-.27-.02-.41.11-.56.11-.11.27-.29.4-.44.13-.15.18-.27.27-.45.09-.18.04-.33-.02-.46-.07-.13-.6-1.45-.82-1.98-.22-.53-.44-.46-.6-.47h-.51c-.18 0-.47.07-.72.35-.25.27-.95.93-.95 2.27 0 1.34.98 2.64 1.12 2.83.13.18 1.93 2.95 4.67 4.13.65.28 1.15.45 1.54.58.65.2 1.24.17 1.71.1.52-.08 1.58-.65 1.8-1.28.22-.63.22-1.17.16-1.28-.07-.11-.25-.18-.52-.31Z"/>
  </g>
</svg>